<svg height="511pt" viewBox="1 0 511.99899 511" width="511pt" xmlns="http://www.w3.org/2000/svg"><g fill="#fff4f1"><path d="m48.671875 391.070312c-25.1875-38.828124-39.8125-85.136718-39.8125-134.863281 0-137.046875 111.097656-248.144531 248.144531-248.144531s248.144532 111.097656 248.144532 248.144531-111.097657 248.144531-248.144532 248.144531c-60.023437 0-115.070312-21.3125-157.984375-56.78125"/><path d="m378.230469 256.207031c0-137.046875-54.273438-248.144531-121.226563-248.144531-66.949218 0-121.226562 111.097656-121.226562 248.144531s54.277344 248.144531 121.226562 248.144531c66.953125 0 121.226563-111.097656 121.226563-248.144531zm0 0"/><path d="m378.230469 256.207031c0-137.046875-54.273438-248.144531-121.226563-248.144531-66.949218 0-121.226562 111.097656-121.226562 248.144531s54.277344 248.144531 121.226562 248.144531c66.953125 0 121.226563-111.097656 121.226563-248.144531zm0 0"/></g><path d="m102.589844 100.441406c0 21.40625-17.355469 38.757813-38.761719 38.757813-21.402344 0-38.757813-17.351563-38.757813-38.757813s17.355469-38.757812 38.757813-38.757812c21.40625 0 38.761719 17.351562 38.761719 38.757812zm0 0" fill="#f9cd45"/><path d="m63.828125 61.679688c-4.226563 0-8.289063.6875-12.097656 1.9375 15.480469 5.082031 26.660156 19.640624 26.660156 36.824218 0 17.179688-11.179687 31.738282-26.660156 36.820313 3.808593 1.25 7.871093 1.9375 12.097656 1.9375 21.40625 0 38.761719-17.351563 38.761719-38.757813s-17.355469-38.761718-38.761719-38.761718zm0 0" fill="#f8b53c"/><path d="m102.589844 425.90625c0 21.40625-17.355469 38.757812-38.761719 38.757812-21.402344 0-38.757813-17.351562-38.757813-38.757812s17.355469-38.757812 38.757813-38.757812c21.40625 0 38.761719 17.351562 38.761719 38.757812zm0 0" fill="#f45a3c"/><path d="m63.828125 387.148438c-4.226563 0-8.289063.683593-12.097656 1.933593 15.480469 5.085938 26.660156 19.644531 26.660156 36.824219s-11.179687 31.738281-26.660156 36.824219c3.808593 1.25 7.871093 1.933593 12.097656 1.933593 21.40625 0 38.761719-17.351562 38.761719-38.757812s-17.355469-38.757812-38.761719-38.757812zm0 0" fill="#e24a2a"/><path d="m495.832031 109.4375c0 21.40625-17.351562 38.757812-38.757812 38.757812s-38.757813-17.351562-38.757813-38.757812 17.351563-38.757812 38.757813-38.757812 38.757812 17.351562 38.757812 38.757812zm0 0" fill="#00bf9e"/><path d="m457.074219 69.128906c-5.105469 0-9.972657.996094-14.4375 2.789063 16.679687 4.328125 29 19.484375 29 37.519531 0 16.300781-10.070313 30.242188-24.324219 35.96875 3.117188.808594 6.390625 1.242188 9.761719 1.242188 21.40625 0 38.757812-17.351563 38.757812-38.757813s-17.351562-38.761719-38.757812-38.761719zm0 0" fill="#00a983"/><path d="m504.4375 382.9375c0 21.40625-17.351562 38.761719-38.757812 38.761719s-38.757813-17.355469-38.757813-38.761719c0-21.402344 17.351563-38.757812 38.757813-38.757812s38.757812 17.355468 38.757812 38.757812zm0 0" fill="#91bcee"/><path d="m465.679688 344.179688c-4.039063 0-7.933594.621093-11.59375 1.765624 15.742187 4.929688 27.164062 19.625 27.164062 36.992188s-11.425781 32.066406-27.164062 36.992188c3.660156 1.148437 7.554687 1.765624 11.59375 1.765624 21.40625 0 38.757812-17.351562 38.757812-38.757812s-17.351562-38.757812-38.757812-38.757812zm0 0" fill="#4890e3"/><path d="m493.933594 346.273438c11.597656-29.640626 17.480468-60.921876 17.480468-93.082032 0-37.53125-8.339843-74.886718-24.175781-108.644531 9.878907-8.503906 16.15625-21.082031 16.15625-35.109375 0-25.542969-20.777343-46.320312-46.320312-46.320312-9.039063 0-17.472657 2.609374-24.605469 7.101562-47.644531-44.988281-109.765625-69.71875-175.464844-69.71875-61.472656 0-120.398437 21.933594-166.789062 61.898438-7.492188-5.210938-16.585938-8.277344-26.382813-8.277344-25.542969 0-46.324219 20.777344-46.324219 46.320312 0 12.359375 4.878907 23.597656 12.800782 31.914063-19.859375 37.003906-30.308594 78.511719-30.308594 120.835937 0 25.707032 3.804688 51.082032 11.308594 75.425782 1 3.25 3.992187 5.335937 7.222656 5.335937.738281 0 1.488281-.109375 2.230469-.339844 3.992187-1.230469 6.230469-5.460937 5-9.453125-7.058594-22.894531-10.636719-46.773437-10.636719-70.96875 0-39.042968 9.460938-77.339844 27.433594-111.625 6.375 3.3125 13.605468 5.195313 21.269531 5.195313 25.542969 0 46.320313-20.78125 46.320313-46.320313 0-10.269531-3.363282-19.765625-9.039063-27.453125 30.277344-25.789062 66.144531-43.464843 104.511719-51.828125-15.304688 13.011719-29.253906 31.953125-41.128906 56.261719-23.394532 47.882813-36.277344 111.375-36.277344 178.785156 0 67.410157 12.882812 130.902344 36.277344 178.78125 11.988281 24.546875 26.09375 43.625 41.570312 56.644531-36.609375-7.695312-70.777344-23.808593-99.90625-46.941406 2.558594-5.746094 3.996094-12.097656 3.996094-18.785156 0-25.542969-20.78125-46.320312-46.320313-46.320312-4.109375 0-8.09375.542968-11.886719 1.554687-5.929687-9.429687-11.234374-19.292969-15.78125-29.410156-1.714843-3.808594-6.1875-5.507813-9.996093-3.792969-3.8125 1.710938-5.511719 6.1875-3.796875 9.996094 4.554687 10.128906 9.820312 20.019531 15.683594 29.507812-12.382813 8.324219-20.546876 22.460938-20.546876 38.46875 0 25.539063 20.78125 46.320313 46.324219 46.320313 13.40625 0 25.492188-5.730469 33.960938-14.867188 44.441406 34.921875 99.769531 54.558594 157.914062 54.558594.34375 0 .6875-.011719 1.035157-.011719.085937 0 .175781.003906.261718.003906.324219 0 .648438-.019531.96875-.023437 72.789063-.636719 141.285156-31.945313 189.394532-86.410156 5.621093 2.429687 11.8125 3.78125 18.3125 3.78125 25.539062 0 46.320312-20.78125 46.320312-46.320313 0-14.914062-7.089844-28.191406-18.066406-36.667968zm-430.101563-214.636719c-17.203125 0-31.199219-13.996094-31.199219-31.195313 0-17.203125 13.996094-31.199218 31.199219-31.199218 17.199219 0 31.195313 13.996093 31.195313 31.199218 0 17.199219-13.996094 31.195313-31.195313 31.195313zm0 325.46875c-17.203125 0-31.199219-13.996094-31.199219-31.199219 0-11.929688 6.730469-22.308594 16.59375-27.558594 1.429688-.007812 2.871094-.417968 4.148438-1.269531.425781-.285156.8125-.605469 1.160156-.957031 2.9375-.917969 6.058594-1.414063 9.296875-1.414063 17.199219 0 31.195313 13.996094 31.195313 31.199219s-13.996094 31.199219-31.195313 31.199219zm424.441407-347.667969c0 17.203125-13.996094 31.195312-31.199219 31.195312s-31.199219-13.992187-31.199219-31.195312 13.996094-31.199219 31.199219-31.199219 31.199219 13.996094 31.199219 31.199219zm-179.472657 381.460938c15.144531-13.003907 28.949219-31.820313 40.71875-55.910157 23.390625-47.878906 36.273438-111.375 36.273438-178.78125 0-51.160156-7.460938-100.464843-21.578125-142.59375-1.328125-3.957031-5.613282-6.097656-9.570313-4.765625-3.960937 1.324219-6.09375 5.609375-4.769531 9.570313 13.605469 40.597656 20.796875 88.242187 20.796875 137.789062 0 65.152344-12.339844 126.289063-34.742187 172.144531-21.355469 43.71875-49.0625 67.964844-78.097657 68.417969-.359375 0-.71875.011719-1.078125.015625-29.246094-.140625-57.175781-24.425781-78.675781-68.433594-22.402344-45.855468-34.738281-106.992187-34.738281-172.144531 0-65.15625 12.335937-126.292969 34.738281-172.148437 21.5625-44.132813 49.589844-68.4375 78.925781-68.4375 30.242188 0 59.941406 26.914062 81.484375 73.839844 1.742188 3.792968 6.230469 5.457031 10.023438 3.714843 3.796875-1.742187 5.460937-6.230469 3.71875-10.027343-11.652344-25.378907-25.515625-45.445313-41.207031-59.632813-.921876-.839844-1.851563-1.640625-2.785157-2.433594 42.011719 9.085938 80.863281 29.320313 112.867188 59.207031-6.46875 7.96875-10.355469 18.109376-10.355469 29.148438 0 25.542969 20.78125 46.320312 46.320312 46.320312 6.0625 0 11.847657-1.179687 17.15625-3.304687 14.628907 31.601563 22.0625 65.433594 22.0625 100.738281 0 29.652344-5.316406 58.5-15.789062 85.875-4.65625-1.578125-9.640625-2.449218-14.824219-2.449218-25.539062 0-46.320312 20.78125-46.320312 46.320312 0 13.546875 5.84375 25.75 15.140625 34.226562-33.617188 37.347657-77.519532 62.875-125.695313 73.734376zm156.878907-76.761719c-17.203126 0-31.199219-13.996094-31.199219-31.199219s13.996093-31.195312 31.199219-31.195312c17.199218 0 31.195312 13.992187 31.195312 31.195312s-13.996094 31.199219-31.195312 31.199219zm0 0" fill="#18191b"/><path d="m326.621094 343.929688v-29.117188c0-38.289062-31.328125-69.617188-69.617188-69.617188-38.289062 0-69.613281 31.328126-69.613281 69.617188v29.117188zm0 0" fill="#4890e3"/><path d="m257.003906 245.789062c-4.300781 0-8.507812.417969-12.601562 1.171876 32.324218 5.976562 57.011718 34.457031 57.011718 68.445312v29.117188h25.207032v-29.117188c0-38.289062-31.328125-69.617188-69.617188-69.617188zm0 0" fill="#2970d6"/><path d="m326.621094 351.488281h-139.230469c-4.175781 0-7.5625-3.382812-7.5625-7.558593v-29.117188c0-42.558594 34.621094-77.179688 77.175781-77.179688 42.554688 0 77.179688 34.621094 77.179688 77.179688v29.117188c0 4.175781-3.386719 7.558593-7.5625 7.558593zm-131.671875-15.121093h124.109375v-21.554688c0-34.21875-27.835938-62.054688-62.054688-62.054688-34.214844 0-62.054687 27.835938-62.054687 62.054688zm0 0"/><path d="m297.664062 212.421875c0-26.507813-18.203124-48-40.660156-48-22.453125 0-40.65625 21.492187-40.65625 48 0 26.511719 18.203125 48 40.65625 48 22.457032 0 40.660156-21.488281 40.660156-48zm0 0" fill="#f0bca6"/><path d="m257.003906 164.421875c-4.398437 0-8.632812.835937-12.601562 2.363281 16.285156 6.261719 28.054687 24.324219 28.054687 45.636719 0 21.316406-11.769531 39.375-28.054687 45.640625 3.96875 1.523438 8.203125 2.363281 12.601562 2.363281 22.457032 0 40.660156-21.492187 40.660156-48.003906s-18.203124-48-40.660156-48zm0 0" fill="#e3ac90"/><path d="m257.003906 267.984375c-26.585937 0-48.21875-24.925781-48.21875-55.5625s21.632813-55.5625 48.21875-55.5625c26.589844 0 48.222656 24.925781 48.222656 55.5625s-21.632812 55.5625-48.222656 55.5625zm0-96c-18.25 0-33.09375 18.140625-33.09375 40.4375s14.84375 40.441406 33.09375 40.441406 33.097656-18.144531 33.097656-40.441406-14.847656-40.4375-33.097656-40.4375zm0 0"/></svg>